<svg width="128" height="128" viewBox="0 0 128 128" fill="none" xmlns="http://www.w3.org/2000/svg">
<rect width="128" height="128" fill="white"/>
<path d="M52.9708 51C55.5916 47.828 59.5592 45.8 64 45.8C68.4408 45.8 72.4084 47.828 75.0292 51C76.7547 53.092 77.8497 55.6315 78.1866 58.3223C78.5235 61.0131 78.0884 63.7442 76.9319 66.1971C75.7755 68.6499 73.9454 70.7234 71.6553 72.1756C69.3651 73.6278 66.7092 74.3989 63.9974 74.3989C61.2856 74.3989 58.6297 73.6278 56.3395 72.1756C54.0494 70.7234 52.2193 68.6499 51.0629 66.1971C49.9064 63.7442 49.4713 61.0131 49.8082 58.3223C50.1451 55.6315 51.2401 53.092 52.9656 51H52.9708Z" fill="#333333"/>
<path d="M83.5 60.1C83.5 56.8136 82.6888 53.7144 81.2536 51H103C105.069 51 107.053 51.8218 108.515 53.2846C109.978 54.7473 110.8 56.7313 110.8 58.8V61.4C110.8 69.6524 104.529 78.1024 93.562 81.0768C92.435 79.0523 90.7874 77.3659 88.7898 76.192C86.7921 75.018 84.517 74.3994 82.2 74.4H77.26C79.231 72.5763 80.8029 70.3643 81.8769 67.9032C82.9508 65.4421 83.5035 62.7852 83.5 60.1Z" fill="#333333"/>
<path d="M82.2 79.6C83.2251 79.5973 84.2406 79.7971 85.1882 80.1882C86.1358 80.5792 86.9967 81.1536 87.7216 81.8784C88.4464 82.6033 89.0208 83.4642 89.4118 84.4118C89.8029 85.3594 90.0027 86.3749 90 87.4V90C90 100.249 80.328 110.8 64 110.8C47.672 110.8 38 100.249 38 90V87.4C37.9973 86.3749 38.1971 85.3594 38.5881 84.4118C38.9792 83.4642 39.5536 82.6033 40.2784 81.8784C41.0033 81.1536 41.8642 80.5792 42.8118 80.1882C43.7594 79.7971 44.7749 79.5973 45.8 79.6H82.2Z" fill="#333333"/>
<path d="M17.2 61.4C17.2 69.6524 23.4712 78.1024 34.438 81.0768C35.565 79.0523 37.2126 77.3659 39.2102 76.192C41.2079 75.018 43.483 74.3994 45.8 74.4H50.74C48.769 72.5763 47.1971 70.3643 46.1231 67.9032C45.0492 65.4421 44.4965 62.7852 44.5 60.1C44.5 56.8136 45.3112 53.7144 46.7516 51H25C22.9313 51 20.9474 51.8218 19.4846 53.2846C18.0218 54.7473 17.2 56.7313 17.2 58.8V61.4Z" fill="#333333"/>
<path d="M57.5 31.5C57.5 27.7074 55.9934 24.0701 53.3116 21.3884C50.6299 18.7066 46.9926 17.2 43.2 17.2C39.4074 17.2 35.7701 18.7066 33.0884 21.3884C30.4066 24.0701 28.9 27.7074 28.9 31.5C28.9 35.2926 30.4066 38.9299 33.0884 41.6116C35.7701 44.2934 39.4074 45.8 43.2 45.8C46.9926 45.8 50.6299 44.2934 53.3116 41.6116C55.9934 38.9299 57.5 35.2926 57.5 31.5V31.5Z" fill="#333333"/>
<path d="M99.1 31.5C99.1 27.7074 97.5934 24.0701 94.9116 21.3884C92.2299 18.7066 88.5926 17.2 84.8 17.2C81.0074 17.2 77.3701 18.7066 74.6884 21.3884C72.0066 24.0701 70.5 27.7074 70.5 31.5C70.5 35.2926 72.0066 38.9299 74.6884 41.6116C77.3701 44.2934 81.0074 45.8 84.8 45.8C88.5926 45.8 92.2299 44.2934 94.9116 41.6116C97.5934 38.9299 99.1 35.2926 99.1 31.5V31.5Z" fill="#333333"/>
</svg>
