<svg width="128" height="128" viewBox="0 0 128 128" fill="none" xmlns="http://www.w3.org/2000/svg">
<rect width="128" height="128" fill="white"/>
<path d="M61.3098 17.451C62.4102 15.2212 65.5898 15.2212 66.6902 17.451L78.5844 41.5512C79.0214 42.4367 79.8661 43.0504 80.8432 43.1924L107.439 47.057C109.9 47.4146 110.883 50.4385 109.102 52.1741L89.8569 70.9335C89.1498 71.6228 88.8272 72.6158 88.9941 73.5889L93.5373 100.078C93.9576 102.528 91.3853 104.397 89.1844 103.24L65.396 90.7339C64.5221 90.2745 63.4779 90.2745 62.604 90.7339L38.8156 103.24C36.6147 104.397 34.0424 102.528 34.4627 100.078L39.0059 73.5889C39.1728 72.6158 38.8502 71.6228 38.1431 70.9335L18.8979 52.1741C17.1174 50.4385 18.0999 47.4146 20.5606 47.057L47.1568 43.1924C48.1339 43.0504 48.9786 42.4367 49.4156 41.5512L61.3098 17.451Z" fill="#333333"/>
</svg>
