<svg width="128" height="128" viewBox="0 0 128 128" fill="none" xmlns="http://www.w3.org/2000/svg">
<rect width="128" height="128" fill="white"/>
<path d="M108 69C108 93.3005 88.3005 113 64 113" stroke="#333333" stroke-width="3" stroke-linecap="round" stroke-dasharray="12 12"/>
<path d="M96.0088 43.3764C97.0451 44.6692 98.9332 44.8771 100.226 43.8407C101.519 42.8044 101.727 40.9163 100.69 39.6236L96.0088 43.3764ZM64 110C41.3563 110 23 91.6437 23 69H17C17 94.9574 38.0426 116 64 116V110ZM23 69C23 46.3563 41.3563 28 64 28V22C38.0426 22 17 43.0426 17 69H23ZM64 28C76.9464 28 88.49 33.997 96.0088 43.3764L100.69 39.6236C92.0817 28.8848 78.8439 22 64 22V28Z" fill="#333333"/>
<path d="M105.371 32.8823L101.489 47.3712L87 43.4889" stroke="#333333" stroke-width="6" stroke-linecap="round" stroke-linejoin="round"/>
</svg>
